<mxfile host="65bd71144e">
    <diagram id="P5QNXVG092cxHFjsGF7O" name="ページ1">
        <mxGraphModel dx="532" dy="557" grid="1" gridSize="10" guides="1" tooltips="1" connect="1" arrows="1" fold="1" page="1" pageScale="1" pageWidth="827" pageHeight="1169" math="0" shadow="0">
            <root>
                <mxCell id="0"/>
                <mxCell id="1" parent="0"/>
                <mxCell id="2" value="Traceback (most recent call last):&lt;br&gt;&amp;nbsp; File &quot;/home/user/Desktop/プログラミング/Py/練習/main.py&quot;, line 62, in &lt;br&gt;&amp;nbsp; &amp;nbsp; calcman()&lt;br&gt;&amp;nbsp; File &quot;/home/user/Desktop/プログラミング/Py/練習/main.py&quot;, line 26, in calcman&lt;br&gt;&amp;nbsp; &amp;nbsp; kotae = calc * calctwo&lt;br&gt;&amp;nbsp; &amp;nbsp; &amp;nbsp; &amp;nbsp; &amp;nbsp; &amp;nbsp; ^^^^&lt;br&gt;UnboundLocalError: cannot access local variable 'calc' where it is not associated with a value&lt;br&gt;を日本語でかんたんに教えて下さい。" style="whiteSpace=wrap;html=1;align=left;" vertex="1" parent="1">
                    <mxGeometry x="80" y="50" width="360" height="360" as="geometry"/>
                </mxCell>
            </root>
        </mxGraphModel>
    </diagram>
</mxfile>